<?xml version="1.0" standalone="no"?>
<!DOCTYPE svg PUBLIC "-//W3C//DTD SVG 20010904//EN"
 "http://www.w3.org/TR/2001/REC-SVG-20010904/DTD/svg10.dtd">
<svg version="1.0" xmlns="http://www.w3.org/2000/svg"
 width="859.000000pt" height="1280.000000pt" viewBox="0 0 859.000000 1280.000000"
 preserveAspectRatio="xMidYMid meet">
<metadata>
Created by potrace 1.15, written by Peter Selinger 2001-2017
</metadata>
<g transform="translate(0.000000,1280.000000) scale(0.100000,-0.100000)"
fill="#3470ff" stroke="none">
<path d="M5958 12490 c-71 -13 -204 -59 -279 -96 -118 -58 -138 -97 -198 -379
-17 -77 -35 -176 -40 -220 -6 -44 -20 -114 -31 -155 -25 -89 -22 -131 15 -224
32 -80 43 -51 -94 -265 -77 -120 -102 -149 -239 -280 -120 -115 -162 -162
-196 -222 -25 -41 -62 -98 -82 -125 -80 -103 -178 -265 -249 -409 -85 -171
-111 -244 -125 -347 -5 -40 -19 -102 -30 -138 -20 -62 -24 -67 -81 -100 -59
-34 -61 -38 -126 -164 -37 -71 -82 -147 -101 -168 -85 -94 -274 -450 -322
-608 -31 -100 -213 -593 -425 -1150 -76 -199 -100 -276 -112 -353 -16 -98 -16
-99 7 -129 l22 -30 -22 -77 c-15 -53 -42 -108 -89 -181 -37 -58 -92 -148 -123
-200 -31 -52 -80 -126 -110 -165 -30 -38 -77 -110 -106 -159 -50 -84 -52 -90
-40 -122 7 -19 15 -34 18 -34 3 0 48 43 100 95 52 52 98 95 101 95 4 0 -9 -37
-28 -82 -52 -123 -84 -207 -99 -263 -12 -44 -11 -51 3 -67 10 -11 17 -37 17
-65 1 -42 4 -47 28 -54 27 -7 33 0 165 183 l138 190 5 -222 c5 -205 6 -223 24
-236 20 -14 66 -19 66 -7 0 58 66 466 81 506 12 29 25 63 31 76 9 24 10 24 37
-25 36 -61 103 -129 154 -156 21 -10 40 -18 42 -16 2 2 -5 39 -16 83 -29 118
-59 354 -59 463 l0 96 264 465 c261 463 264 467 319 636 l57 170 2 -240 c3
-360 4 -356 -67 -730 -25 -126 -53 -317 -64 -423 -18 -182 -19 -202 -4 -320
l15 -127 64 -67 c35 -36 64 -73 64 -81 0 -8 12 -98 26 -199 41 -290 39 -321
-71 -973 -130 -772 -226 -1438 -346 -2390 -56 -445 -60 -495 -61 -690 0 -206
-1 -212 -34 -334 l-34 -125 0 -272 0 -272 47 -16 c66 -20 327 -92 388 -107 28
-6 89 -31 136 -55 141 -71 182 -83 395 -119 238 -41 326 -43 480 -14 103 19
114 24 147 57 l36 37 -24 94 c-13 51 -27 97 -32 101 -90 76 -143 116 -215 163
-47 32 -128 98 -180 147 -51 50 -101 93 -110 96 -10 3 -21 17 -24 32 -3 15
-14 59 -24 97 -25 97 -16 142 69 332 69 157 70 159 96 338 27 191 37 234 117
495 28 91 83 311 123 490 115 510 168 731 176 723 14 -15 81 -247 105 -362 26
-126 143 -553 154 -561 22 -16 63 -149 166 -545 82 -312 113 -447 159 -700 20
-110 38 -201 39 -202 1 -1 88 20 194 47 106 28 198 50 206 50 25 0 57 -101
112 -354 60 -280 85 -365 115 -392 43 -39 151 -14 359 82 63 29 183 76 265
104 196 68 457 171 570 225 96 46 213 143 427 354 l98 95 -38 39 c-121 126
-153 127 -330 20 l-75 -46 -101 6 c-90 5 -378 50 -496 79 -72 17 -111 46 -145
110 -8 14 -42 120 -75 235 -95 324 -274 954 -314 1099 l-36 131 0 264 c0 189
-4 291 -15 359 -21 125 -151 698 -176 775 -87 261 -87 262 -108 446 -11 101
-25 254 -31 339 -10 158 -25 239 -61 319 -11 25 -31 88 -44 139 -20 77 -24
108 -19 180 2 48 -1 170 -9 272 -7 102 -12 187 -11 189 2 2 39 -71 83 -163 44
-91 83 -166 88 -166 4 0 79 16 166 37 114 27 163 34 175 27 8 -6 27 -39 42
-75 14 -35 56 -116 92 -179 36 -63 80 -148 98 -187 l33 -73 126 0 c230 0 323
30 385 122 20 28 43 82 53 120 11 44 22 67 30 64 18 -7 78 12 107 35 31 25 35
68 7 93 -10 10 -69 37 -131 62 -79 31 -125 55 -155 83 -24 22 -108 88 -187
147 -130 97 -144 111 -154 148 -15 57 -63 147 -126 238 -233 336 -240 348
-331 553 -99 223 -117 281 -127 420 -6 66 -12 134 -15 150 -3 17 -10 98 -15
180 -6 83 -18 204 -27 270 -22 163 -26 885 -5 1020 24 154 13 282 -52 590 -39
185 -69 301 -96 370 -21 55 -46 125 -54 156 -20 68 -56 307 -56 371 0 58 18
74 120 109 59 19 80 33 115 72 75 82 94 133 134 354 6 34 27 113 46 175 22 74
37 150 44 221 7 85 15 119 36 160 58 109 58 108 14 268 -22 79 -50 167 -63
195 -48 105 -157 179 -307 209 -93 19 -279 27 -341 15z"/>
<path d="M1607 12316 c-45 -17 -74 -41 -93 -77 -11 -23 -25 -28 -101 -43 -177
-34 -167 -29 -275 -129 -55 -50 -106 -104 -114 -119 -22 -42 -17 -129 12 -213
23 -66 25 -80 15 -124 -7 -34 -7 -67 -1 -102 18 -96 13 -136 -35 -256 -39 -96
-44 -117 -34 -136 22 -42 42 -57 76 -57 28 0 33 -4 33 -22 0 -13 9 -34 20 -48
24 -30 25 -48 4 -71 -13 -14 -13 -24 -4 -60 7 -23 9 -61 6 -84 -11 -73 29 -94
175 -95 42 0 90 -3 107 -6 l30 -6 -23 -63 c-50 -132 -39 -235 36 -334 21 -28
39 -54 39 -57 0 -8 -96 -123 -127 -151 -13 -13 -36 -23 -50 -23 -34 0 -108
-76 -118 -121 -15 -65 -297 -307 -455 -389 -52 -27 -108 -58 -125 -70 -16 -11
-40 -20 -52 -20 -25 0 -49 -33 -106 -146 l-36 -71 12 -263 12 -263 -53 -76
c-106 -151 -126 -210 -111 -336 25 -224 119 -335 319 -379 25 -5 27 -11 39
-108 16 -130 45 -275 72 -355 22 -66 15 -96 -23 -106 -19 -5 -38 -45 -38 -79
0 -45 65 -153 132 -221 38 -37 68 -74 68 -83 0 -18 32 -82 76 -151 38 -60 45
-122 26 -233 -42 -240 11 -574 188 -1195 131 -461 166 -612 200 -880 27 -206
55 -345 87 -420 33 -80 38 -95 62 -201 l22 -92 -31 -593 c-35 -680 -42 -806
-75 -1235 -24 -320 -23 -360 11 -411 l17 -27 -59 -54 c-76 -69 -204 -154 -285
-191 -35 -15 -129 -45 -209 -66 -255 -66 -280 -82 -280 -172 0 -49 22 -80 74
-104 36 -16 70 -19 306 -20 146 -1 326 -4 400 -8 l135 -6 -120 -78 c-114 -74
-176 -107 -327 -175 -79 -36 -100 -64 -106 -141 -4 -53 -2 -59 22 -75 60 -39
172 -58 377 -63 214 -6 350 2 754 47 143 16 327 34 408 41 217 18 237 35 237
205 l0 102 68 6 c37 3 138 11 225 17 l159 12 -7 46 c-4 25 -13 50 -20 56 -7 6
-22 80 -35 175 -12 91 -40 269 -61 395 -72 425 -128 779 -158 1000 -57 417
-350 1930 -427 2205 -9 30 -37 102 -64 160 -43 92 -53 128 -84 295 -50 270
-102 587 -122 752 -17 139 -17 143 2 164 18 20 18 22 1 34 -24 17 -25 174 -1
210 15 24 15 26 -6 43 -18 15 -20 21 -11 45 6 16 11 47 11 69 0 23 11 63 25
92 32 66 52 163 61 296 11 173 -20 307 -133 574 -31 72 -66 161 -79 197 l-23
65 25 85 c31 105 59 223 74 315 l11 72 48 4 c111 11 173 98 192 269 13 112 18
123 54 127 38 5 171 140 209 212 16 30 42 70 58 88 21 25 28 43 28 76 0 50
-23 132 -55 196 -40 81 -74 193 -85 280 -17 143 -16 144 46 44 73 -116 76
-118 53 -44 -24 76 -41 228 -30 267 7 24 13 28 39 27 l31 -2 -19 52 c-25 65
-25 67 6 56 33 -13 34 -13 34 8 0 9 -32 53 -70 97 -90 103 -116 175 -107 299
10 127 53 266 120 386 l31 55 12 -40 c10 -37 12 -38 22 -19 6 12 12 58 13 102
l2 81 -56 83 c-52 77 -55 83 -36 88 18 4 16 7 -14 18 -26 9 -46 29 -75 75 -55
84 -64 109 -51 147 6 16 13 30 15 30 2 0 32 -17 66 -38 35 -21 75 -43 91 -50
24 -10 27 -10 27 8 0 11 7 20 15 20 8 0 15 4 15 8 0 12 -56 63 -120 109 -30
22 -63 49 -73 60 -20 23 -93 218 -77 208 5 -3 26 -33 46 -65 20 -33 38 -60 40
-60 15 0 -108 267 -194 422 -189 343 -275 429 -477 484 -84 22 -298 29 -348
10z"/>
<path d="M2797 9229 c10 -17 24 -36 32 -42 8 -7 2 7 -14 31 -32 49 -45 57 -18
11z"/>
</g>
</svg>
